<svg xmlns="http://www.w3.org/2000/svg" width="1200" height="640" viewBox="0 0 1200 640">
  <rect width="1200" height="640" fill="#111827"/>
  <g transform="translate(70 70)">
    <rect width="1060" height="140" rx="14" fill="#1f2937"/>
    <rect y="170" width="1060" height="140" rx="14" fill="#1f2937"/>
    <rect y="340" width="1060" height="140" rx="14" fill="#1f2937"/>
    <rect x="32" y="28" width="360" height="34" rx="8" fill="#2563eb"/>
    <rect x="32" y="82" width="220" height="24" rx="6" fill="#475569"/>
    <rect x="760" y="48" width="240" height="46" rx="23" fill="#10b981"/>
    <rect x="32" y="198" width="360" height="34" rx="8" fill="#0ea5e9"/>
    <rect x="32" y="252" width="220" height="24" rx="6" fill="#475569"/>
    <rect x="760" y="218" width="240" height="46" rx="23" fill="#10b981"/>
    <rect x="32" y="368" width="360" height="34" rx="8" fill="#22c55e"/>
    <rect x="32" y="422" width="220" height="24" rx="6" fill="#475569"/>
    <rect x="760" y="388" width="240" height="46" rx="23" fill="#10b981"/>
  </g>
  <text x="70" y="612" fill="#a5b4fc" font-size="20" font-family="Arial">Visual map: repeated capability modules and CTA rhythm</text>
</svg>
