<svg xmlns="http://www.w3.org/2000/svg" width="1200" height="700" viewBox="0 0 1200 700" role="img" aria-label="Rubrik thumbnail">
  <defs>
    <linearGradient id="bg" x1="0" y1="0" x2="1" y2="1">
      <stop offset="0%" stop-color="#0f1722"/>
      <stop offset="100%" stop-color="#1f2c3b"/>
    </linearGradient>
    <linearGradient id="accent" x1="0" y1="0" x2="1" y2="0">
      <stop offset="0%" stop-color="#F95E4E"/>
      <stop offset="100%" stop-color="#FF8A5C"/>
    </linearGradient>
  </defs>
  <rect width="1200" height="700" fill="url(#bg)"/>
  <g transform="translate(190 230)">
    <path d="M0 48C0 21.49 21.49 0 48 0h130c26.51 0 48 21.49 48 48v130c0 26.51-21.49 48-48 48H48c-26.51 0-48-21.49-48-48V48zm86 22h58c22.09 0 40 17.91 40 40v0c0 22.09-17.91 40-40 40h-20l40 56h-48l-34-48h-12v48H34V70h52z" fill="url(#accent)"/>
    <text x="274" y="150" fill="#ffffff" font-size="110" font-family="Arial, Helvetica, sans-serif" font-weight="700" letter-spacing="2">RUBRIK</text>
  </g>
  <text x="600" y="620" fill="#9fb3c8" text-anchor="middle" font-size="24" font-family="Arial, Helvetica, sans-serif">Competitive Analysis Baseline</text>
</svg>
